# xmcd
# Copyright (C) 1995-1998 Ti Kan
#
# Track frame offsets:
#       150
#       17617
#       35419
#       60183
#       71906
#       88198
#       110980
#       126479
#       141476
#       160746
#
# Disc length: 2449 seconds
#
# Revision: 0
# Processed by: cddbd v1.5.2PL0 Copyright (c) Steve Scherf et al.
# Submitted via: CD-Import v1.0
#
DISCID=91098f0a
DTITLE=Drama - A Morning After...
DYEAR=1900
DGENRE=
TTITLE0=The Man
TTITLE1=A Morning After
TTITLE2=Necklace
TTITLE3=Living Chart
TTITLE4=Shake Down
TTITLE5=Lonely
TTITLE6=A 68th
TTITLE7=Geneva
TTITLE8=Under The Moonlight
TTITLE9=Terminal 7
EXTD=
EXTT0=
EXTT1=
EXTT2=
EXTT3=
EXTT4=
EXTT5=
EXTT6=
EXTT7=
EXTT8=
EXTT9=
PLAYORDER=
